<svg xmlns="http://www.w3.org/2000/svg" viewBox="0 0 128 128">
   <!-- Definitions for gradients -->
   <defs>
      <linearGradient id="baseGradient" x1="0%" y1="0%" x2="100%" y2="100%">
         <stop offset="0%" stop-color="#E01B24" />
         <stop offset="100%" stop-color="#9141AC" />
      </linearGradient>
      <linearGradient id="edgeGradient" x1="0%" y1="0%" x2="100%" y2="100%">
         <stop offset="0%" stop-color="#A00818" />
         <stop offset="100%" stop-color="#6A3280" />
      </linearGradient>
   </defs>
   <!-- Base rectangle with rounded corners - Gradient -->
   <rect x="16" y="16" width="96" height="96" rx="12" ry="12" fill="url(#baseGradient)" />

   <!-- Front profile (gives the 3D effect per GNOME guidelines) -->
   <path d="M16 95 Q16 107, 28 107 L100 107 Q112 107, 112 95 L112 102 Q112 114, 100 114 L28 114 Q16 114, 16 102 Z" fill="url(#edgeGradient)" />

   <!-- Sound bars with consistent wave pattern, all centered vertically -->
   <!-- Leftmost bar (shortest) -->
   <rect x="24" y="57" width="5" height="14" rx="2.5" fill="#FFFFFF" />

   <!-- Second bar (medium-short) -->
   <rect x="35" y="47" width="5" height="34" rx="2.5" fill="#FFFFFF" />

   <!-- Third bar (tallest) -->
   <rect x="46" y="37" width="5" height="54" rx="2.5" fill="#FFFFFF" />

   <!-- Fourth bar (medium-tall) -->
   <rect x="57" y="42" width="5" height="44" rx="2.5" fill="#FFFFFF" />

   <!-- Center gap for symmetry -->
   
   <!-- Fifth bar (medium-tall) -->
   <rect x="68" y="42" width="5" height="44" rx="2.5" fill="#FFFFFF" />

   <!-- Sixth bar (tallest) -->
   <rect x="79" y="37" width="5" height="54" rx="2.5" fill="#FFFFFF" />

   <!-- Seventh bar (medium-short) -->
   <rect x="90" y="47" width="5" height="34" rx="2.5" fill="#FFFFFF" />

   <!-- Rightmost bar (shortest) -->
   <rect x="101" y="57" width="5" height="14" rx="2.5" fill="#FFFFFF" />
</svg>
